# xmcd
#
# Track frame offsets:
#	150
#	8957
#	19172
#	26807
#	37715
#	48777
#	59985
#	70085
#	82045
#	91582
#	102072
#	113122
#	123735
#	134947
#	142595
#	154192
#	163487
#	176355
#	189800
#	202002
#	212187
#	222707
#	235017
#	248985
#
# Disc length: 3454 seconds
#
# Revision: 1
# Processed by: cddbd v1.5PL3 Copyright (c) Steve Scherf et al.
# Submitted via: EasyCDDAExtractor 7.0.4.1
#
DISCID=590d7c18
DTITLE=Jim Reeves - Gentleman Jim - 1955-1959 - Disc 04
DYEAR=1989
DGENRE=Country and Western
TTITLE0=Throw Another Log On The Fire
TTITLE1=Making Believe
TTITLE2=Til The End Of The World
TTITLE3=How's The World Treating You
TTITLE4=Someday (You'll Want Me To Want You)
TTITLE5=Just Call Me Lonesome
TTITLE6=(Now And Then There's) A Fool Such As I
TTITLE7=May The Good Lord Bless And Keep You
TTITLE8=Dear Hearts And Gentle People
TTITLE9=Am I Losing You (2. Recording)
TTITLE10=Satan Can't Hold Me
TTITLE11=Scarlet Ribbons
TTITLE12=How Long Has It Been
TTITLE13=Teach Me How To Pray
TTITLE14=An Evening Prayer
TTITLE15=The Padre Of Old San Antone (2. Recording)
TTITLE16=Suppertime
TTITLE17=It Is No Secret
TTITLE18=God Be With You
TTITLE19=A Beautiful Life
TTITLE20=In The Garden
TTITLE21=Precious Memories
TTITLE22=Whispering Hope
TTITLE23=The Flowers, The Sunset, The Trees
EXTD=
EXTT0=
EXTT1=
EXTT2=
EXTT3=
EXTT4=
EXTT5=
EXTT6=
EXTT7=
EXTT8=
EXTT9=
EXTT10=
EXTT11=
EXTT12=
EXTT13=
EXTT14=
EXTT15=
EXTT16=
EXTT17=
EXTT18=
EXTT19=
EXTT20=
EXTT21=
EXTT22=
EXTT23=
PLAYORDER=
